<svg xmlns="http://www.w3.org/2000/svg" viewBox="0 0 480 320" role="img" aria-label="Illustrative plot plan">
  <defs>
    <pattern id="grid" width="16" height="16" patternUnits="userSpaceOnUse"><path d="M16 0H0V16" fill="none" stroke="#D4A64A" stroke-opacity=".07"/></pattern>
  </defs>
  <rect width="480" height="320" fill="#0F0D0A"/>
  <rect width="480" height="320" fill="url(#grid)"/>
  <g font-family="Instrument Sans, Arial, sans-serif" font-size="10" fill="#BDB4A3" letter-spacing=".5">
    <path d="M70 60H410V260H70Z" fill="#D4A64A" fill-opacity=".06" stroke="#F6DC93" stroke-width="2" stroke-dasharray="10 6"/>
    <g fill="#D4A64A"><circle cx="70" cy="60" r="4"/><circle cx="410" cy="60" r="4"/><circle cx="410" cy="260" r="4"/><circle cx="70" cy="260" r="4"/></g>
    <path d="M70 284H410M70 278v12M410 278v12M432 60V260M426 60h12M426 260h12" fill="none" stroke="#D4A64A" stroke-width="1.2"/>
    <text x="240" y="300" text-anchor="middle" fill="#D4A64A">FRONT · ROAD SIDE</text>
    <text x="448" y="160" text-anchor="middle" transform="rotate(90 448 160)" fill="#D4A64A">DEPTH</text>
    <rect x="0" y="262" width="480" height="12" fill="#D4A64A" fill-opacity=".08"/>
    <text x="240" y="150" text-anchor="middle" font-size="14" fill="#F6DC93">PLOT</text>
    <text x="240" y="170" text-anchor="middle">boundary pegs verified on site</text>
  </g>
  <g transform="translate(34 32)" stroke="#D4A64A" fill="none"><circle r="14" stroke-opacity=".5"/><path d="M0 -10 4 4 0 1 -4 4Z" fill="#D4A64A"/></g>
  <text x="34" y="60" text-anchor="middle" font-family="Instrument Sans, Arial" font-size="9" fill="#D4A64A">N</text>
</svg>
