<svg xmlns="http://www.w3.org/2000/svg" viewBox="0 0 480 320" role="img" aria-label="Illustrative ground floor plan">
  <defs>
    <pattern id="grid" width="16" height="16" patternUnits="userSpaceOnUse"><path d="M16 0H0V16" fill="none" stroke="#D4A64A" stroke-opacity=".07"/></pattern>
  </defs>
  <rect width="480" height="320" fill="#0F0D0A"/>
  <rect width="480" height="320" fill="url(#grid)"/>
  <g font-family="Instrument Sans, Arial, sans-serif" font-size="10" fill="#BDB4A3" letter-spacing=".5">
    <rect x="60" y="50" width="340" height="220" fill="none" stroke="#F6DC93" stroke-width="3"/>
    <path d="M60 150H230M230 50V270M230 170H400M310 170V270M150 150V270" fill="none" stroke="#D4A64A" stroke-width="1.2"/>
    <path d="M190 270a26 26 0 0 1 26-26" fill="none" stroke="#D4A64A" stroke-width="1.2"/><path d="M230 120a22 22 0 0 1 22 22" fill="none" stroke="#D4A64A" stroke-width="1.2"/>
    <rect x="248" y="70" width="40" height="22" fill="none" stroke="#D4A64A" stroke-width="1.2"/><rect x="328" y="190" width="54" height="30" rx="8" fill="none" stroke="#D4A64A" stroke-width="1.2"/>
    <text x="145" y="102" text-anchor="middle">LOUNGE</text>
    <text x="315" y="114" text-anchor="middle">BEDROOM 1</text>
    <text x="190" y="214" text-anchor="middle">KITCHEN</text>
    <text x="100" y="214" text-anchor="middle">DINING</text>
    <text x="270" y="224" text-anchor="middle">BATH</text>
    <text x="355" y="244" text-anchor="middle">BEDROOM 2</text>
    <text x="230" y="300" text-anchor="middle" fill="#D4A64A">GROUND FLOOR · ILLUSTRATIVE PLAN</text>
  </g>
  <g transform="translate(34 32)" stroke="#D4A64A" fill="none"><circle r="14" stroke-opacity=".5"/><path d="M0 -10 4 4 0 1 -4 4Z" fill="#D4A64A"/></g>
  <text x="34" y="60" text-anchor="middle" font-family="Instrument Sans, Arial" font-size="9" fill="#D4A64A">N</text>
</svg>
